<!DOCTYPE svg PUBLIC "-//W3C//DTD SVG 1.1//EN" "http://www.w3.org/Graphics/SVG/1.1/DTD/svg11.dtd">
<!-- Uploaded to: SVG Repo, www.svgrepo.com, Transformed by: SVG Repo Mixer Tools -->
<svg fill="#adcbeb" height="800px" width="800px" version="1.1" id="Layer_1" xmlns="http://www.w3.org/2000/svg" xmlns:xlink="http://www.w3.org/1999/xlink" viewBox="0 0 512 512" xml:space="preserve" stroke="#adcbeb">
<g id="SVGRepo_bgCarrier" stroke-width="0"/>
<g id="SVGRepo_tracerCarrier" stroke-linecap="round" stroke-linejoin="round"/>
<g id="SVGRepo_iconCarrier"> <g> <g> <g> <path d="M323.623,434.717H188.377c-5.333,0-9.66,4.328-9.66,9.66s4.328,9.66,9.66,9.66h135.245c5.333,0,9.66-4.328,9.66-9.66 S328.955,434.717,323.623,434.717z"/> <path d="M323.623,396.076H188.377c-5.333,0-9.66,4.328-9.66,9.66s4.328,9.66,9.66,9.66h135.245c5.333,0,9.66-4.328,9.66-9.66 S328.955,396.076,323.623,396.076z"/> <path d="M360.033,135.632c-4.482-41.231-15.911-84.345-44.032-130.966C314.252,1.778,311.112,0,307.722,0H202.897 c-3.41,0-6.569,1.807-8.308,4.743c-26.218,44.331-37.337,88.267-41.965,130.396c-32.044,21.301-51.19,56.648-51.19,95.077 v171.491c0,60.812,49.48,110.293,110.293,110.293h88.547c60.812,0,110.293-49.48,110.293-110.293V230.216 C410.566,192.058,391.67,156.971,360.033,135.632z M169.057,247.924c24.711-10.501,52.736-16.075,69.874-16.075h34.671 c16.973,0,44.766,5.497,69.342,15.843v11.148c0,3.304-0.309,6.521-0.754,9.699c-21.784-10.433-49.915-17.369-68.589-17.369 H238.93c-18.847,0-47.191,7.033-69.081,17.611c-0.464-3.256-0.792-6.55-0.792-9.941V247.924z M391.245,401.707 c0,50.157-40.815,90.972-90.972,90.972h-88.547c-50.157,0-90.972-40.815-90.972-90.972V230.216 c0-26.083,10.578-50.495,28.981-68.222v19.92c-0.357,15.65-0.251,30.962-0.126,45.829c0.068,7.477,0.126,14.858,0.126,22.132 v7.709v1.256c0,17.408,5.101,33.608,13.776,47.336c0.087,0.135,0.164,0.27,0.242,0.406c1.14,1.768,2.347,3.487,3.603,5.168 c0.309,0.425,0.628,0.85,0.947,1.275c1.188,1.526,2.405,3.024,3.69,4.473c0.454,0.522,0.927,1.024,1.401,1.536 c1.246,1.362,2.521,2.686,3.845,3.961c0.56,0.531,1.14,1.034,1.7,1.546c1.333,1.217,2.676,2.434,4.086,3.565 c0.531,0.435,1.101,0.821,1.642,1.237c2.434,1.865,4.956,3.594,7.574,5.207c1.111,0.686,2.212,1.401,3.352,2.038 c1.101,0.609,2.232,1.15,3.362,1.71c1.294,0.657,2.599,1.314,3.932,1.903c1.111,0.483,2.232,0.927,3.362,1.372 c1.43,0.56,2.869,1.101,4.337,1.584c1.101,0.377,2.212,0.715,3.333,1.043c1.575,0.464,3.169,0.86,4.782,1.237 c1.072,0.242,2.125,0.493,3.207,0.705c1.816,0.348,3.652,0.609,5.497,0.84c0.927,0.116,1.835,0.27,2.773,0.357 c2.792,0.271,5.622,0.435,8.492,0.435h34.661c2.869,0,5.7-0.164,8.501-0.435c0.927-0.087,1.845-0.242,2.773-0.357 c1.845-0.242,3.69-0.493,5.497-0.85c1.082-0.203,2.145-0.454,3.207-0.705c1.613-0.367,3.217-0.773,4.792-1.237 c1.121-0.319,2.232-0.667,3.333-1.034c1.478-0.493,2.927-1.034,4.357-1.604c1.13-0.444,2.251-0.879,3.343-1.362 c1.352-0.599,2.666-1.256,3.98-1.922c1.111-0.56,2.241-1.092,3.323-1.691c1.208-0.676,2.357-1.43,3.526-2.154 c2.531-1.565,4.985-3.246,7.332-5.052c0.589-0.454,1.208-0.869,1.787-1.333c1.362-1.111,2.657-2.29,3.961-3.478 c0.609-0.56,1.237-1.092,1.836-1.671c1.294-1.246,2.521-2.541,3.739-3.854c0.522-0.57,1.034-1.121,1.536-1.7 c1.237-1.401,2.415-2.85,3.555-4.328c0.386-0.502,0.763-1.014,1.14-1.517c1.188-1.613,2.338-3.256,3.42-4.946 c0.193-0.299,0.367-0.609,0.551-0.908c5.062-8.134,8.849-17.118,11.08-26.711c0,0,0,0,0-0.01 c1.497-6.463,2.367-13.157,2.367-20.074v-1.555v-7.41c0-8.984,0.126-18.017,0.261-27.107c0.261-18.558,0.493-37.299-0.261-56.368 v-4.405c18.403,17.727,28.981,42.139,28.981,68.222V401.707z"/> </g> </g> </g> </g>
</svg>